# xmcd
#
# Track frame offsets:
#	150
#	15562
#	26255
#	39647
#	55015
#	69175
#	85787
#	98301
#	112410
#	126317
#	139834
#	153410
#	167074
#	182577
#
# Disc length: 2641 seconds
#
# Revision: 0
# Processed by: cddbd v1.5.2PL0 Copyright (c) Steve Scherf et al.
# Submitted via: EasyCDDAExtractor 11.9.9.666
#
DISCID=ab0a4f0e
DTITLE=Sétimo Sentido - Gosto de Mel
DYEAR=1900
DGENRE=
TTITLE0=Gosto de mel
TTITLE1=By bye amor
TTITLE2=Mania de dá
TTITLE3=Fogo de paixão
TTITLE4=Amor bandido
TTITLE5=Solução
TTITLE6=Jogo do amor
TTITLE7=Deslizes
TTITLE8=Na palma da mão
TTITLE9=Perdido de amor
TTITLE10=ABC do meu viver
TTITLE11=Deixe a minha mão
TTITLE12=Gosto de mel (Remix)
TTITLE13=Deslizes (Remix)
EXTD=
EXTT0=
EXTT1=
EXTT2=
EXTT3=
EXTT4=
EXTT5=
EXTT6=
EXTT7=
EXTT8=
EXTT9=
EXTT10=
EXTT11=
EXTT12=
EXTT13=
PLAYORDER=
